#!OML:ASF H:\Male1\Project 1\Capture day 1\Session 1\Male1.ASF
:FULLY-SPECIFIED
:DEGREES
460
root -8.97085 15.2177 11.095 3.53473 132.753 -358.747
lowerback 13.0414 0.504477 -4.25213
upperback 5.07656 0.506129 -1.505
thorax -1.98396 0.395683 0.748981
lowerneck -8.09232 7.48785 9.07268
upperneck -2.43516 9.3756 -5.44558
head 1.36779 4.6325 -2.94712
rclavicle 3.16068e-014 -4.45278e-014
rhumerus -44.917 0.301662 -83.5341
rradius 38.817
rwrist -22.793
rhand -23.8083 -1.14834
rfingers 7.12502
rthumb 2.66249 -31.1115
lclavicle 3.16068e-014 -4.45278e-014
lhumerus -27.4563 21.6156 64.236
lradius 29.0495
lwrist -2.41334
lhand -22.1738 14.9393
lfingers 7.12502
lthumb 4.24097 44.8768
rfemur -23.3334 2.0496 25.4959
rtibia 39.8359
rfoot -26.3495 -25.5328
rtoes -26.3167
lfemur -1.75934 -17.0237 -21.6227
ltibia 21.9758
lfoot -28.1934 27.767
ltoes -4.10335
461
root -8.99449 15.233 11.1485 4.10087 133.086 -358.524
lowerback 12.5066 0.666532 -3.65522
upperback 4.85602 0.780874 -1.59411
thorax -1.93426 0.527465 0.286998
lowerneck -7.44145 8.14437 9.57915
upperneck -3.09881 10.2742 -6.02201
head 1.17178 5.0805 -3.21367
rclavicle -3.35946e-014 1.74931e-014
rhumerus -44.9499 -0.57458 -82.9812
rradius 38.709
rwrist -22.9454
rhand -24.8931 -1.05271
rfingers 7.12502
rthumb 1.61484 -31.0263
lclavicle -3.35946e-014 1.74931e-014
lhumerus -26.7048 20.5269 65.3981
lradius 30.1924
lwrist -0.450122
lhand -22.6168 14.8228
lfingers 7.12502
lthumb 3.81318 44.7685
rfemur -23.6357 1.18697 25.2325
rtibia 40.9701
rfoot -24.9615 -25.0495
rtoes -29.1125
lfemur -2.51804 -18.4039 -21.3438
ltibia 22.1408
lfoot -28.6208 28.5205
ltoes -2.64778
462
root -8.97022 15.232 11.2243 3.24373 134.165 -358.969
lowerback 12.6418 0.769019 -4.1377
upperback 4.96907 0.877685 -1.59666
thorax -1.89499 0.578639 0.540401
lowerneck -6.63556 8.56424 10.2235
upperneck -3.95769 10.8659 -6.74981
head 0.88783 5.37676 -3.59324
rclavicle -5.1684e-014 1.19271e-014
rhumerus -44.9796 -1.57572 -82.4256
rradius 38.5981
rwrist -23.3645
rhand -24.5363 -1.26441
rfingers 7.12502
rthumb 1.95939 -31.2352
lclavicle -5.1684e-014 1.19271e-014
lhumerus -25.8963 19.4553 66.6206
lradius 31.3815
lwrist 0.782218
lhand -23.0065 14.7665
lfingers 7.12502
lthumb 3.4368 44.7185
rfemur -22.4608 0.85728 24.6462
rtibia 41.8911
rfoot -25.616 -24.9919
rtoes -29.3801
lfemur -2.19906 -19.5048 -21.4808
ltibia 22.2592
lfoot -28.439 28.6136
ltoes -3.02081
463
root -8.97078 15.2232 11.2824 2.76361 134.959 -359.497
lowerback 12.4403 0.863464 -4.20537
upperback 4.97568 1.00847 -1.73012
thorax -1.78229 0.644715 0.424693
lowerneck -6.22435 8.80952 10.7602
upperneck -4.36037 11.1983 -7.27326
head 0.78504 5.54192 -3.87831
rclavicle -4.77083e-014 2.62396e-014
rhumerus -44.8703 -2.3318 -81.9491
rradius 38.4385
rwrist -23.9239
rhand -24.6172 -1.49218
rfingers 7.12502
rthumb 1.88123 -31.4636
lclavicle -4.77083e-014 2.62396e-014
lhumerus -25.1387 18.6384 67.8442
lradius 32.793
lwrist 1.3569
lhand -22.9657 14.59
lfingers 7.12502
lthumb 3.47618 44.5414
rfemur -21.865 0.130244 23.7641
rtibia 42.4699
rfoot -25.2358 -24.8596
rtoes -30.7597
lfemur -2.32956 -20.7252 -21.7491
ltibia 22.2564
lfoot -28.3548 29.0027
ltoes -3.06646
464
root -8.96101 15.2178 11.3335 2.34121 135.816 -360.046
lowerback 12.2397 0.89099 -4.21693
upperback 4.91997 1.04942 -1.8865
thorax -1.73072 0.666312 0.265963
lowerneck -5.72787 8.9676 11.2145
upperneck -4.95864 11.4306 -7.86033
head 0.595072 5.66041 -4.18987
rclavicle 5.26779e-014 -1.19271e-014
rhumerus -44.8724 -2.80848 -81.5881
rradius 38.4285
rwrist -24.378
rhand -24.8231 -1.74691
rfingers 7.12502
rthumb 1.6824 -31.72
lclavicle 5.26779e-014 -1.19271e-014
lhumerus -24.7181 17.0593 69.0739
lradius 34.6276
lwrist 2.22328
lhand -22.7984 13.9419
lfingers 7.12502
lthumb 3.63781 43.8906
rfemur -21.0975 -0.122912 22.8105
rtibia 42.4182
rfoot -25.3911 -25.1745
rtoes -31.0601
lfemur -2.44172 -21.8614 -22.0178
ltibia 22.1639
lfoot -28.0552 29.4499
ltoes -3.78
465
root -8.93874 15.2116 11.3802 2.09866 136.654 -360.487
lowerback 11.9994 0.919917 -4.1195
upperback 4.76726 1.09274 -2.04354
thorax -1.75785 0.687883 0.0450598
lowerneck -5.33401 8.97539 11.4628
upperneck -5.28252 11.4673 -8.03273
head 0.450966 5.68141 -4.32264
rclavicle -3.29983e-014 9.54166e-015
rhumerus -45.0116 -3.20929 -81.3093
rradius 38.5051
rwrist -24.4965
rhand -24.7322 -2.15981
rfingers 7.12502
rthumb 1.77017 -32.1322
lclavicle -3.29983e-014 9.54166e-015
lhumerus -24.6012 14.8571 70.1933
lradius 36.6057
lwrist 3.30954
lhand -22.3996 13.062
lfingers 7.12502
lthumb 4.02288 43.0038
rfemur -20.0762 0.0834695 21.9847
rtibia 41.6291
rfoot -26.9441 -25.441
rtoes -28.8724
lfemur -2.72639 -22.939 -22.1623
ltibia 22.3065
lfoot -27.8771 29.8628
ltoes -4.68408
466
root -8.90125 15.2038 11.424 2.07466 137.37 -360.784
lowerback 11.557 1.00197 -4.09173
upperback 4.60178 1.20426 -2.08581
thorax -1.69316 0.736805 -0.0218402
lowerneck -5.38993 9.08055 11.2284
upperneck -5.11377 11.612 -8.07027
head 0.519208 5.75609 -4.27507
rclavicle 3.65764e-014 0
rhumerus -45.0098 -3.53087 -80.9651
rradius 38.4218
rwrist -24.283
rhand -24.445 -2.30742
rfingers 7.12502
rthumb 2.04758 -32.2773
lclavicle 3.65764e-014 0
lhumerus -24.5777 12.9078 71.3121
lradius 38.4574
lwrist 3.87258
lhand -21.9306 12.5126
lfingers 7.12502
lthumb 4.47582 42.4453
rfemur -18.9276 1.10938 21.3879
rtibia 40.1518
rfoot -28.8118 -26.3682
rtoes -26.0226
lfemur -3.18103 -23.9692 -22.1231
ltibia 22.6748
lfoot -28.1629 30.0363
ltoes -4.66692
